<svg xmlns="http://www.w3.org/2000/svg" xmlns:xlink="http://www.w3.org/1999/xlink" viewBox="0 0 229.34 147.69"><defs><style>.cls-1{fill:url(#Unbenannter_Verlauf_14);}.cls-2{fill:url(#Unbenannter_Verlauf_14-2);}.cls-3{fill:#4f8ac8;}.cls-4{fill:url(#Unbenannter_Verlauf_3);}.cls-5{fill:#6cc9f2;}</style><linearGradient id="Unbenannter_Verlauf_14" y1="73.8" x2="431.06" y2="73.8" gradientUnits="userSpaceOnUse"><stop offset="0.1" stop-color="#4d8ac8"/><stop offset="0.71" stop-color="#6cc9f2"/></linearGradient><linearGradient id="Unbenannter_Verlauf_14-2" x1="49.2" y1="73.9" x2="176.01" y2="73.9" xlink:href="#Unbenannter_Verlauf_14"/><linearGradient id="Unbenannter_Verlauf_3" x1="65.17" y1="8.82" x2="110.61" y2="32.57" gradientUnits="userSpaceOnUse"><stop offset="0.27" stop-color="#4f8ac8"/><stop offset="0.4" stop-color="#4d87c3"/><stop offset="0.56" stop-color="#487db5"/><stop offset="0.72" stop-color="#3f6e9e"/><stop offset="0.9" stop-color="#32587d"/><stop offset="1" stop-color="#294966"/></linearGradient></defs><g id="Ebene_2" data-name="Ebene 2"><g id="Ebene_1-2" data-name="Ebene 1"><path class="cls-1" d="M114.75,11.92A74.3,74.3,0,0,0,75.69,0C75.12,0,74.57,0,74,0,32.59,0,0,32.59,0,73.8s32.59,73.79,74,73.79a73.86,73.86,0,0,0,13.53-1.23,14.87,14.87,0,0,0-2.67-29.52,16.42,16.42,0,0,0-3.28.41,45.26,45.26,0,0,1-7.58.62c-23.57,0-42.23-19.48-42.23-44.07,0-20.8,13.34-37.93,31.71-42.73a41.52,41.52,0,0,1,29.3,3.15A72.81,72.81,0,0,1,114.75,11.92Z"/><rect class="cls-2" x="49.2" y="58.31" width="126.81" height="31.18" rx="15.59"/><path class="cls-3" d="M74.16.1C32.75.1.15,32.7.15,73.9s32.6,73.79,74,73.79a73.67,73.67,0,0,0,13.52-1.23A14.87,14.87,0,0,0,85,117a15.55,15.55,0,0,0-3.28.41,45.45,45.45,0,0,1-7.58.61C50.58,118,31.93,98.5,31.93,73.9c0-20.8,13.33-37.93,31.7-42.73L75.84.13C75.28.12,74.72.1,74.16.1Z"/><path class="cls-4" d="M92.94,34.32a72.55,72.55,0,0,1,22-22.29A74.37,74.37,0,0,0,75.84.13l-12.21,31a41.7,41.7,0,0,1,29.31,3.15Z"/><path class="cls-5" d="M217,114.9a72.75,72.75,0,0,0,12.3-41c0-41.2-32.59-73.8-74-73.8A74.4,74.4,0,0,0,114.59,12a72.77,72.77,0,0,0-22,22.29A74,74,0,0,0,81.36,72.75c0,.38,0,.76,0,1.15a74.3,74.3,0,0,0,7.91,33.61,72.93,72.93,0,0,0,48.61,38.17,76,76,0,0,0,17.48,2,73.78,73.78,0,0,0,13.53-1.23A14.87,14.87,0,0,0,166.21,117a15.55,15.55,0,0,0-3.28.41,45.49,45.49,0,0,1-7.59.61,41.06,41.06,0,0,1-18.86-4.54A43.15,43.15,0,0,1,114.59,85.6a47,47,0,0,1,0-23.41,43.17,43.17,0,0,1,22-27.87,41.13,41.13,0,0,1,18.78-4.49c23.58,0,42.23,19.47,42.23,44.07a46.78,46.78,0,0,1-2.46,15l-22.34-24.6a15.28,15.28,0,0,0-11.89-5.53,15.44,15.44,0,0,0-11.69,25.21l50.63,58.22a15.25,15.25,0,0,0,11.89,5.53,15.44,15.44,0,0,0,11.69-25.21Z"/></g></g></svg>